<svg width="420" height="170" viewBox="0 0 420 170" fill="none" xmlns="http://www.w3.org/2000/svg">
<path d="M99.9469 16.3537C123.93 21.1842 156.783 29.8071 183.327 27.7944C207.061 25.9948 241.662 19.4046 250.156 16.3537C260.774 12.5402 265.77 9.36223 281.072 2.05293C296.374 -5.25638 317.922 8.40896 325.104 20.1674C334.675 35.8355 366.014 29.7011 383.814 35.7393C401.614 41.7774 410.046 58.9384 417.229 71.0146C424.411 83.0909 417.229 127.9 400.365 148.557C383.502 169.214 332.599 152.37 311.052 152.37C289.504 152.37 279.823 158.408 271.704 163.175C263.584 167.942 203.626 169.214 179.892 152.37C156.158 135.527 145.228 142.519 123.681 142.519C102.133 142.519 66.5324 174.298 28.1214 169.214C-10.2897 164.129 9.07195 112.328 0.952535 75.7816C-7.16688 39.235 69.9675 10.3156 99.9469 16.3537Z" fill="white"/>
</svg>
